<?xml version="1.0" encoding="utf-8"?>
<!-- Generator: Adobe Illustrator 24.3.0, SVG Export Plug-In . SVG Version: 6.00 Build 0)  -->
<svg version="1.1" xmlns="http://www.w3.org/2000/svg" xmlns:xlink="http://www.w3.org/1999/xlink" x="0px" y="0px"
	 viewBox="0 0 2000 2000" style="enable-background:new 0 0 2000 2000;" xml:space="preserve">
<style type="text/css">
	.st0{fill:#FFFFFF;}
	.st1{fill:#FE5252;}
	.st2{fill:#009688;}
	.st3{fill:#00796B;}
	.st4{fill:#FF8080;}
</style>
<g id="레이어_2">
	<circle class="st0" cx="1000" cy="1000" r="1000"/>
</g>
<g id="레이어_1">
	<g id="레이어_1_1_">
	</g>
	<g id="레이어_3_1_">
		<g>
			<path class="st1" d="M1139.2,356.1c-85.6,0-154.6,69.1-154.6,154.6V820c0,85.6,69.1,154.6,154.6,154.6s154.1-69.1,154.1-154.6
				l0.5-309.3C1293.8,425.2,1224.7,356.1,1139.2,356.1z M1200.5,825.2c0,34-27.3,61.9-61.3,61.9s-61.9-27.8-61.9-61.9V505.6
				c0-34,27.8-61.9,61.9-61.9s61.9,27.8,61.9,61.9L1200.5,825.2z"/>
		</g>
		<path class="st2" d="M1369.9,1210.6c-15.6,190.7-175.1,340.5-369.9,340.5c-205.1,0-371.1-166.1-371.1-371.1
			c0-167.4,110.7-308.8,262.9-355.1c0-1.6-0.1-3.2-0.1-4.8v-91.2C687.7,777.8,536.1,961.3,536.1,1180
			c0,256.1,207.8,463.9,464.4,463.9c256.1,0,463.5-207.8,463.5-463.9c0-14-0.6-27.8-1.8-41.4
			C1434.4,1166.6,1403.4,1190.8,1369.9,1210.6z"/>
		<path class="st3" d="M744.5,1040.5l209.1,120.7v293.2c15.1,2.5,30.6,3.9,46.4,3.9c15.8,0,31.3-1.4,46.4-3.9v-239.6v-107.1
			l-34-19.6L802,966.6C778.9,987.9,759.5,1012.9,744.5,1040.5z"/>
		<path class="st4" d="M1407.2,820c0,148-120,268-268,268h-46.4v354.1c34.4-12.3,65.9-31.3,92.8-55.4v-208.9
			c177.4-22.8,314.4-174.3,314.4-357.9L1407.2,820L1407.2,820z"/>
		
			<rect x="478.5" y="656.5" transform="matrix(0.7071 -0.7071 0.7071 0.7071 -302.5422 675.4072)" class="st2" width="371.1" height="92.8"/>
	</g>
</g>
</svg>
