<?xml version="1.0" encoding="utf-8"?>
<!-- Generator: Adobe Illustrator 24.1.2, SVG Export Plug-In . SVG Version: 6.00 Build 0)  -->
<svg version="1.1" xmlns="http://www.w3.org/2000/svg" xmlns:xlink="http://www.w3.org/1999/xlink" x="0px" y="0px"
	 viewBox="0 0 2000 2000" style="enable-background:new 0 0 2000 2000;" xml:space="preserve">
<style type="text/css">
	.st0{fill:#FE5252;}
	.st1{fill:#009688;}
	.st2{fill:#00796B;}
	.st3{fill:#FF8080;}
</style>
<g id="레이어_1">
</g>
<g id="레이어_3_1_">
	<g>
		<path class="st0" d="M1172.92,200c-106.31,0-192.13,85.82-192.13,192.13v384.26c0,106.31,85.82,192.13,192.13,192.13
			s191.49-85.82,191.49-192.13l0.64-384.26C1365.05,285.82,1279.23,200,1172.92,200z M1249.13,782.79
			c0,42.27-33.94,76.85-76.21,76.85s-76.85-34.58-76.85-76.85V385.73c0-42.27,34.58-76.85,76.85-76.85s76.85,34.58,76.85,76.85
			L1249.13,782.79z"/>
	</g>
	<path class="st1" d="M1459.55,1261.67c-19.34,236.94-217.61,423.05-459.55,423.05c-254.76,0-461.11-206.35-461.11-461.11
		c0-208,137.55-383.72,326.69-441.22c-0.04-2-0.07-4-0.07-6V663.12c-253.54,60.76-441.9,288.76-441.9,560.5
		c0,318.17,258.22,576.39,576.96,576.39c318.17,0,575.81-258.22,575.81-576.39c0-17.34-0.77-34.5-2.26-51.44
		C1539.72,1207.04,1501.18,1237.06,1459.55,1261.67z"/>
	<path class="st2" d="M682.58,1050.34l259.79,149.99v364.29c18.75,3.16,38,4.82,57.64,4.82c19.59,0,38.85-1.68,57.64-4.9v-297.66
		v-133.11l-42.19-24.36L754.02,958.48C725.32,985.02,701.2,1016.04,682.58,1050.34z"/>
	<path class="st3" d="M1505.94,776.39c0,183.92-149.1,333.02-333.03,333.02h-57.64v440c42.79-15.32,81.9-38.9,115.28-68.83v-259.57
		c220.37-28.29,390.66-216.57,390.66-444.63H1505.94z"/>
	
		<rect x="524.93" y="400.33" transform="matrix(0.7071 0.7071 -0.7071 0.7071 616.7311 -227.1543)" class="st1" width="115.28" height="461.11"/>
</g>
</svg>
