<?xml version="1.0" encoding="utf-8"?>
<!-- Generator: Adobe Illustrator 24.3.0, SVG Export Plug-In . SVG Version: 6.00 Build 0)  -->
<svg version="1.1" xmlns="http://www.w3.org/2000/svg" xmlns:xlink="http://www.w3.org/1999/xlink" x="0px" y="0px"
	 viewBox="0 0 2000 2000" style="enable-background:new 0 0 2000 2000;" xml:space="preserve">
<style type="text/css">
	.st0{fill:#FFFFFF;}
	.st1{fill:#FF4081;}
	.st2{fill:#3F51B5;}
	.st3{fill:#03A9F4;}
	.st4{fill:#7C4DFF;}
</style>
<g id="레이어_2">
	<circle class="st0" cx="1000" cy="1000" r="1000"/>
</g>
<g id="레이어_1">
	<g id="Guideline">
	</g>
	<g id="레이어_6">
		<g>
			<path class="st1" d="M1416.7,333.3h-500v83.3h499.9c0.1,0,0.1,0.1,0.2,0.1v58.5c13,8.4,25.2,18.4,36.5,29.8
				c20.5,20.6,36.2,44.1,46.8,69.7V416.7C1500,370.8,1462.5,333.3,1416.7,333.3z"/>
			<path class="st1" d="M1416.7,848.9v734.2c0,0.1-0.1,0.1-0.2,0.2h-833c0,0-0.1-0.1-0.2-0.2l0-1124.8l0,0v-125
				c-45.8,0-83.3,37.5-83.3,83.3v1166.7c0,45.8,37.5,83.3,83.3,83.3h833.3c45.8,0,83.3-37.5,83.3-83.3V742.4
				c-10.6,25.6-26.3,49.1-46.8,69.7L1416.7,848.9z"/>
		</g>
		<g>
			<path class="st2" d="M1019.3,1341.3c0-37.1,13.7-68.7,41.2-94.8c27.5-26.2,60.5-39.4,99.2-39.4c38.8,0,72,13.1,99.5,39.4
				c27.3,26.1,40.9,57.7,40.9,94.8c0,25.2-6.8,48.5-20.5,69.8h20.5v64.3h-299.7l-67.5-64.3h106.8
				C1026.1,1389.8,1019.3,1366.5,1019.3,1341.3z M1211.4,1292c-14.3-13.7-31.6-20.5-51.7-20.5c-20.1,0-37.3,6.8-51.4,20.5
				c-14.3,13.6-21.5,30.1-21.5,49.3c0,19.2,7.2,35.7,21.5,49.3c14.2,13.7,31.3,20.5,51.4,20.5c20.1,0,37.4-6.8,51.7-20.5
				c14.2-13.7,21.3-30.1,21.3-49.3C1232.7,1322.1,1225.6,1305.6,1211.4,1292z"/>
			<path class="st3" d="M1300.1,1113.8v67.2h-299.7l-67.5-67.2H1300.1z"/>
			<path class="st3" d="M1300.1,953.2c0,37.1-13,68.8-39.1,95c-26.2,26.2-57.9,39.4-95,39.4c-36.9,0-68.5-13.1-94.8-39.4
				c-26.2-26.3-39.4-57.9-39.4-95c0-36.9,13.1-68.5,39.4-94.8c26.2-26.2,57.8-39.4,94.8-39.4c37.1,0,68.8,13.1,95,39.4
				C1287.1,884.6,1300.1,916.2,1300.1,953.2z M1096.5,953.2c0,19.4,6.7,36,20.2,49.6c13.7,13.5,30.1,20.2,49.3,20.2
				c19.2,0,35.7-6.7,49.3-20.2c13.6-13.6,20.5-30.2,20.5-49.6c0-19.2-6.8-35.7-20.5-49.3c-13.7-13.5-30.1-20.2-49.3-20.2
				s-35.7,6.7-49.3,20.2C1103.2,917.5,1096.5,933.9,1096.5,953.2z"/>
			<path class="st2" d="M1031.9,524.5h268c36.7,0,68.2,13.1,94.2,39.4c25.9,26.1,38.8,57.7,38.8,94.8c0,37.1-13,68.7-38.8,94.8
				l-45.1-45.4c13.5-13.7,20.2-30.1,20.2-49.3s-6.7-35.7-20.2-49.3c-13.7-13.7-30-20.5-49.1-20.5h-19.4c13,21.4,19.4,44.6,19.4,69.8
				c0,37.1-13,68.7-39.1,94.8c-26.2,26.2-57.8,39.4-94.8,39.4c-37.1,0-68.7-13.1-94.8-39.4c-26.2-26.1-39.4-57.6-39.4-94.8
				c0-25.2,6.5-48.5,19.4-69.8h-19.4V524.5z M1235.6,658.7c0-19.2-6.8-35.7-20.5-49.3c-13.5-13.7-29.8-20.5-49.1-20.5
				s-35.7,6.8-49.3,20.5c-13.7,13.6-20.5,30.1-20.5,49.3c0,19.2,6.8,35.7,20.5,49.3s30.1,20.5,49.3,20.5c19.2,0,35.6-6.8,49.1-20.5
				C1228.7,694.4,1235.6,677.9,1235.6,658.7z"/>
		</g>
		<g id="레이어_7">
			<polygon class="st4" points="666.7,333.3 666.7,666.7 750,583.3 833.3,666.7 833.3,333.3 			"/>
		</g>
	</g>
</g>
</svg>
