<?xml version="1.0" encoding="utf-8"?>
<!-- Generator: Adobe Illustrator 24.0.0, SVG Export Plug-In . SVG Version: 6.00 Build 0)  -->
<svg version="1.1" xmlns="http://www.w3.org/2000/svg" xmlns:xlink="http://www.w3.org/1999/xlink" x="0px" y="0px"
	 viewBox="0 0 2000 2000" style="enable-background:new 0 0 2000 2000;" xml:space="preserve">
<style type="text/css">
	.st0{fill:#FF4081;}
	.st1{fill:#3F51B5;}
	.st2{fill:#03A9F4;}
	.st3{fill:#7C4DFF;}
</style>
<g id="Guideline">
</g>
<g id="레이어_6">
	<g>
		<path class="st0" d="M1500,200H900v100h599.82c0.06,0.05,0.13,0.12,0.18,0.18v70.23c15.55,10.13,30.22,22.08,43.86,35.8
			c24.59,24.76,43.42,52.94,56.14,83.69V300C1600,245,1555,200,1500,200z"/>
		<path class="st0" d="M1500,818.73l0,881.09c-0.05,0.06-0.12,0.13-0.18,0.18l-999.64,0c-0.06-0.05-0.13-0.12-0.18-0.18L500,350h0
			V200c-55,0-100,45-100,100v1400c0,55,45,100,100,100h1000c55,0,100-45,100-100V690.89c-12.73,30.74-31.55,58.92-56.14,83.68
			L1500,818.73z"/>
	</g>
	<g>
		<path class="st1" d="M1023.15,1409.61c0-44.51,16.49-82.41,49.45-113.7c32.97-31.5,72.65-47.24,119.05-47.24
			c46.61,0,86.41,15.75,119.37,47.24c32.76,31.29,49.13,69.19,49.13,113.7c0,30.24-8.19,58.16-24.57,83.78h24.57v77.17h-359.69
			l-80.95-77.17h128.19C1031.34,1467.77,1023.15,1439.84,1023.15,1409.61z M1253.7,1350.39c-17.21-16.38-37.9-24.57-62.05-24.57
			c-24.14,0-44.72,8.19-61.73,24.57c-17.21,16.38-25.83,36.12-25.83,59.21c0,23.1,8.61,42.83,25.83,59.21
			c17.01,16.38,37.59,24.57,61.73,24.57c24.15,0,44.83-8.19,62.05-24.57c17.01-16.38,25.51-36.11,25.51-59.21
			C1279.21,1386.51,1270.71,1366.77,1253.7,1350.39z"/>
		<path class="st2" d="M1360.16,1136.54v80.63h-359.69l-80.95-80.63H1360.16z"/>
		<path class="st2" d="M1360.16,943.78c0,44.52-15.64,82.52-46.93,114.02c-31.5,31.5-69.5,47.24-114.02,47.24
			c-44.3,0-82.21-15.75-113.7-47.24c-31.5-31.5-47.24-69.5-47.24-114.02c0-44.3,15.75-82.21,47.24-113.7
			c31.5-31.5,69.4-47.24,113.7-47.24c44.52,0,82.52,15.75,114.02,47.24C1344.52,861.57,1360.16,899.48,1360.16,943.78z
			 M1115.75,943.78c0,23.31,8.09,43.15,24.25,59.53c16.38,16.17,36.12,24.25,59.21,24.25c23.1,0,42.84-8.08,59.21-24.25
			c16.38-16.38,24.57-36.22,24.57-59.53c0-23.1-8.19-42.83-24.57-59.21c-16.38-16.17-36.11-24.25-59.21-24.25
			c-23.1,0-42.84,8.09-59.21,24.25C1123.83,900.95,1115.75,920.68,1115.75,943.78z"/>
		<path class="st1" d="M1038.27,429.45h321.57c44.09,0,81.78,15.75,113.07,47.24c31.07,31.29,46.61,69.19,46.61,113.7
			c0,44.52-15.54,82.42-46.61,113.7l-54.17-54.49c16.17-16.38,24.25-36.11,24.25-59.21c0-23.1-8.09-42.83-24.25-59.21
			c-16.38-16.38-36.01-24.57-58.9-24.57h-23.31c15.54,25.62,23.31,53.54,23.31,83.78c0,44.52-15.64,82.42-46.93,113.7
			c-31.5,31.5-69.39,47.24-113.7,47.24c-44.51,0-82.41-15.75-113.7-47.24c-31.5-31.28-47.24-69.18-47.24-113.7
			c0-30.24,7.77-58.16,23.31-83.78h-23.31V429.45z M1282.68,590.39c0-23.1-8.19-42.83-24.57-59.21
			c-16.17-16.38-35.8-24.57-58.9-24.57c-23.1,0-42.84,8.19-59.21,24.57c-16.38,16.38-24.57,36.12-24.57,59.21
			c0,23.1,8.19,42.83,24.57,59.21c16.38,16.38,36.12,24.57,59.21,24.57c23.1,0,42.73-8.19,58.9-24.57
			C1274.49,633.23,1282.68,613.49,1282.68,590.39z"/>
	</g>
	<g id="레이어_7">
		<polygon class="st3" points="600,200 600,600 700,500 800,600 800,200 		"/>
	</g>
</g>
</svg>
