<?xml version="1.0" encoding="utf-8"?>
<!-- Generator: Adobe Illustrator 24.3.0, SVG Export Plug-In . SVG Version: 6.00 Build 0)  -->
<svg version="1.1" id="레이어_1" xmlns="http://www.w3.org/2000/svg" xmlns:xlink="http://www.w3.org/1999/xlink" x="0px"
	 y="0px" viewBox="0 0 2000 2000" style="enable-background:new 0 0 2000 2000;" xml:space="preserve">
<style type="text/css">
	.st1{fill:#7C4DFF;}
	.st2{fill:#FF4081;}
	.st3{fill:#03A9F4;}
	.st4{fill:#3F51B5;}
</style>
<g id="IENLAB_NEW_1_">
	<g id="IENLAB_COLOR_1_">
		<path class="st1" d="M733.2,647.5l-61.7,35.6l0,0l0,0v633.6l0,0l0,0l-165.3-95.5c14.4,53.3,49.3,99.7,98.4,128l66.9,38.6
			l61.7,35.6l0,0v-71.2l0,0V647.5z"/>
		<path class="st2" d="M733.2,576.6l-128,73.9c-48.9,28.2-83.7,74.4-98,127.5c-4.8,17.6-7.3,36.1-7.3,54.8v333.5
			c0,18.9,2.5,37.3,7.3,55.1l165.3,95.5l0,0l-36.1-20.8c-22.7-13.1-41.7-32.1-54.8-54.8c-13.1-22.7-20.1-48.6-20.1-74.9V832.8
			c0-26.1,6.9-51.8,19.9-74.4c13-22.6,31.9-41.4,54.5-54.5l35.9-20.7l0,0l61.3-35.4V576.6L733.2,576.6z"/>
		<path class="st3" d="M765.4,1370l61.7,35.6v-2.8l0,0V596.1l0,0l0,0l110.3-63.7l0,0l61.3-35.4v-41.3c-36.3,0-72.7,9.4-105.2,28.2
			l-128,73.9v71.8l0,0V1370z"/>
		<path class="st4" d="M1500,1095.9l-501.3,158.8V494L937,529.6v4.1l0,0v719.1v83.7l79.8-25.3l415.9-131.7
			c-2,21.1-8.6,41.7-19.3,60.1c-13,22.6-31.9,41.4-54.5,54.5l-286.3,165.3c-22.6,13-48.3,19.9-74.4,19.9s-51.8-6.9-74.4-19.9
			l-61.5-35.5l0,0l-96.9-56v73.8l128.7,74.3c32.7,18.9,69.3,28.4,105.8,28.4c36.5,0,73.1-9.4,105.8-28.4l58.5-33.8l229.9-132.7
			c49.1-28.4,84.1-74.8,98.5-128.2l0,0c4.8-17.8,7.3-36.3,7.3-55.1L1500,1095.9L1500,1095.9z"/>
		<path class="st2" d="M1329,828.2c-11.9-11.9-18.5-27.8-18.5-44.7c0-16.9,6.6-32.8,18.5-44.7l-43.6-43.6l0,0
			c-22.6,22.6-36.6,53.8-36.6,88.3c0,34.5,14,65.7,36.6,88.3l0,0L1329,828.2z"/>
		<path class="st4" d="M1373.7,658.5c-34.5,0-65.7,14-88.3,36.6l0,0l43.6,43.6l0,0c11.9-11.9,27.8-18.5,44.7-18.5
			c16.9,0,32.8,6.6,44.7,18.5l0,0l43.6-43.6C1439.4,672.5,1408.2,658.5,1373.7,658.5z"/>
		<path class="st1" d="M1462,871.8l-43.6-43.6l0,0c-11.9,11.9-27.8,18.5-44.7,18.5c-16.9,0-32.8-6.6-44.7-18.5l0,0l-43.6,43.6l0,0
			c22.6,22.6,53.8,36.6,88.3,36.6S1439.4,894.4,1462,871.8z"/>
		<path class="st3" d="M1462,871.8c22.6-22.6,36.6-53.8,36.6-88.3c0-34.5-14-65.7-36.6-88.3l-43.6,43.6
			c11.9,11.9,18.5,27.8,18.5,44.7c0,16.9-6.6,32.8-18.5,44.7L1462,871.8z"/>
	</g>
</g>
</svg>
