<?xml version="1.0" encoding="utf-8"?>
<!-- Generator: Adobe Illustrator 24.1.1, SVG Export Plug-In . SVG Version: 6.00 Build 0)  -->
<svg version="1.1" xmlns="http://www.w3.org/2000/svg" xmlns:xlink="http://www.w3.org/1999/xlink" x="0px" y="0px"
	 viewBox="0 0 2000 2000" style="enable-background:new 0 0 2000 2000;" xml:space="preserve">
<style type="text/css">
	.st0{fill:#3F51B5;}
	.st1{fill:#FF4081;}
	.st2{fill:#03A9F4;}
	.st3{fill:#7C4DFF;}
</style>
<g id="레이어_1">
</g>
<g id="레이어_3_1_">
	<g>
		<path class="st0" d="M1500,300.2V444l0,0c29.6,0,48.6-9.1,78.9-24.2c6.8-3.9,13.8-7.7,21.1-11.6V300c0-55-45-100-100-100H900v100
			h599.8C1499.9,300.1,1499.9,300.1,1500,300.2z"/>
		<path class="st0" d="M1500,1640C1500,1640,1500,1640,1500,1640l0,59.8c-0.1,0.1-0.1,0.1-0.2,0.2l-999.6,0
			c-0.1-0.1-0.1-0.1-0.2-0.2L500,600l0,0V200c-55,0-100,45-100,100v1400c0,55,45,100,100,100h1000c55,0,100-45,100-100v-67.7
			C1567.1,1637.4,1533.7,1640,1500,1640z"/>
	</g>
	<polygon class="st1" points="600,200 600,600 700,500 800,600 800,200 	"/>
	<g id="레이어_4">
		<path class="st2" d="M1600,1018.1c-17.1,14.3-28,35.8-28,59.9s10.9,45.5,28,59.9V1018.1z"/>
		<circle class="st2" cx="1350" cy="1078" r="78"/>
		<path class="st3" d="M1600,520.6c-28.2,12.9-58.9,23.4-100,23.4c-54,0-84-18-126-36c-42-24-90-48-174-48s-132,24-174,48
			c-42,18-72,36-126,36v114c84,0,132-24,180-48c42-18,72-36,120-36s84,18,126,36c48,24,96,48,174,48c38.8,0,71.6-5.9,100-14.8V520.6
			z"/>
		<path class="st3" d="M1600,787.5c-26.6,13.6-54.8,20.5-100,20.5c-60,0-84-18-126-36s-90-48-174-48s-132,30-174,48
			c-42,24-72,36-126,36v114c84,0,132-24,180-48c42-18,72-36,120-36s84,18,126,42c48,24,96,48,174,48c38.8,0,71.6-5.9,100-14.8V787.5
			z"/>
		<path class="st2" d="M1600,1408.1c-32.1,7.7-65.5,11.9-100,11.9c-228,0-414-180-420-408c-18,6-42,18-60,24c-18,12-36,18-60,24
			c36,276,264,480,540,480c34.2,0,67.6-3.1,100-9.1V1408.1z"/>
	</g>
</g>
</svg>
