<?xml version="1.0" encoding="utf-8"?>
<!-- Generator: Adobe Illustrator 24.3.0, SVG Export Plug-In . SVG Version: 6.00 Build 0)  -->
<svg version="1.1" id="레이어_1" xmlns="http://www.w3.org/2000/svg" xmlns:xlink="http://www.w3.org/1999/xlink" x="0px"
	 y="0px" viewBox="0 0 2000 2000" style="enable-background:new 0 0 2000 2000;" xml:space="preserve">
<style type="text/css">
	.st0{fill:#FFFFFF;}
</style>
<g id="레이어_1_1_">
</g>
<g id="레이어_3_1_">
	<g>
		<path class="st0" d="M1416.7,416.8v119.8l0,0c24.7,0,40.5-7.6,65.8-20.2c5.7-3.2,11.5-6.4,17.6-9.7v-90.2
			c0-45.8-37.5-83.3-83.3-83.3h-500v83.3h499.8C1416.6,416.8,1416.6,416.8,1416.7,416.8z"/>
		<path class="st0" d="M1416.7,1533.3L1416.7,1533.3v49.8c-0.1,0.1-0.1,0.1-0.2,0.2h-833c-0.1-0.1-0.1-0.1-0.2-0.2l0-916.5l0,0
			V333.3c-45.8,0-83.3,37.5-83.3,83.3v1166.7c0,45.8,37.5,83.3,83.3,83.3h833.3c45.8,0,83.3-37.5,83.3-83.3v-56.4
			C1472.6,1531.2,1444.8,1533.3,1416.7,1533.3z"/>
	</g>
	<polygon class="st0" points="666.7,333.3 666.7,666.7 750,583.3 833.3,666.7 833.3,333.3 	"/>
	<g id="레이어_4">
		<path class="st0" d="M1500,1015.1c-14.2,11.9-23.3,29.8-23.3,49.9s9.1,37.9,23.3,49.9V1015.1z"/>
		<circle class="st0" cx="1291.7" cy="1065" r="65"/>
		<path class="st0" d="M1500,600.5c-23.5,10.8-49.1,19.5-83.3,19.5c-45,0-70-15-105-30c-35-20-75-40-145-40s-110,20-145,40
			c-35,15-60,30-105,30v95c70,0,110-20,150-40c35-15,60-30,100-30s70,15,105,30c40,20,80,40,145,40c32.3,0,59.7-4.9,83.3-12.3V600.5
			z"/>
		<path class="st0" d="M1500,822.9c-22.2,11.3-45.7,17.1-83.3,17.1c-50,0-70-15-105-30s-75-40-145-40s-110,25-145,40
			c-35,20-60,30-105,30v95c70,0,110-20,150-40c35-15,60-30,100-30s70,15,105,35c40,20,80,40,145,40c32.3,0,59.7-4.9,83.3-12.3V822.9
			z"/>
		<path class="st0" d="M1500,1340.1c-26.8,6.4-54.6,9.9-83.3,9.9c-190,0-345-150-350-340c-15,5-35,15-50,20c-15,10-30,15-50,20
			c30,230,220,400,450,400c28.5,0,56.3-2.6,83.3-7.6V1340.1z"/>
	</g>
</g>
</svg>
