<?xml version="1.0" encoding="utf-8"?>
<!-- Generator: Adobe Illustrator 24.3.0, SVG Export Plug-In . SVG Version: 6.00 Build 0)  -->
<svg version="1.1" xmlns="http://www.w3.org/2000/svg" xmlns:xlink="http://www.w3.org/1999/xlink" x="0px" y="0px"
	 viewBox="0 0 2000 2000" style="enable-background:new 0 0 2000 2000;" xml:space="preserve">
<style type="text/css">
	.st0{fill:#FFFFFF;}
	.st1{display:none;}
	.st2{fill:#3F51B5;}
	.st3{fill:#03A9F4;}
	.st4{fill:#7C4DFF;}
	.st5{fill:#FF4081;}
</style>
<g id="레이어_2">
	<circle class="st0" cx="1000" cy="1000" r="1000"/>
</g>
<g id="레이어_1">
	<g id="Guideline" class="st1">
	</g>
	<g id="레이어_10">
		<path class="st2" d="M1338.7,1058.3c40.4,50.6,54.7,105.2,42.7,163.8c-12,58.6-49.7,109-112.9,151.2
			c-63.3,42.2-138.8,67.3-226.7,75.3c-87.9,8-169.8-1.5-245.7-28.5l-83.5,55.7c99.9,41.3,209.6,58,329.2,50
			c119.5-8,222.3-40.7,308.3-98c86-57.3,135-125.9,147.1-205.6c12-79.7-13-152.9-74.9-219.5L1338.7,1058.3z"/>
		<path class="st3" d="M904.1,1347.9c45.5,10.1,92,11.6,139.5,4.4c47.4-7.2,88.9-22.6,124.3-46.2c35.4-23.6,58.5-51.2,69.3-82.9
			c10.7-31.6,8.5-62.6-6.6-93L904.1,1347.9z"/>
		<path class="st4" d="M1224.2,1015.7c-3.8,5.9-7.6,11.9-11.4,17.7l97.4-65h-58.3C1243.1,984.7,1233.9,1000.4,1224.2,1015.7z"/>
		<g>
			<path class="st4" d="M908.1,1236.5c-6-6.6-12.7-14.4-20.1-23.3c-12.4-14.8-32.9-41.6-62.7-82c-29.9-40.4-57-80.3-80.4-118.5l0,0
				c-21.2-34.4-40.7-72.8-58.1-114.4L500,1022.9l161.3,107.5v270.7L908.1,1236.5z"/>
		</g>
		<path class="st5" d="M808.5,545.1c48.5-48.5,107.3-72.7,176.4-72.7c69.1,0,128.2,24.3,177.3,72.7c49,48.5,73.6,107.3,73.6,176.4
			c0,34.6-8.6,74.4-25.9,119.6c-17.3,45.2-38.2,87-62.7,125.4c-24.5,38.5-49.1,74.7-73.6,108.7c-24.5,34-45.2,61-61.9,81.1
			l-26.8,28.4c-6.7-6.7-15.6-16.7-26.8-30.1c-11.2-13.4-30.9-39.3-59.4-77.8c-28.4-38.5-53.8-75.8-76.1-112
			c-22.3-36.2-42.4-77.2-60.2-122.9c-17.8-45.7-26.8-85.8-26.8-120.4C735.7,652.4,760,593.6,808.5,545.1z M922.2,784.3
			c17.3,17.3,38.2,25.9,62.7,25.9c24.5,0,45.7-8.6,63.5-25.9c17.8-17.3,26.8-38.2,26.8-62.7c0-24.5-8.9-45.4-26.8-62.7
			c-17.8-17.3-39-25.9-63.5-25.9c-24.5,0-45.4,8.6-62.7,25.9c-17.3,17.3-25.9,38.2-25.9,62.7C896.3,746.1,904.9,767,922.2,784.3z"/>
	</g>
</g>
</svg>
