<?xml version="1.0" encoding="utf-8"?>
<!-- Generator: Adobe Illustrator 24.0.0, SVG Export Plug-In . SVG Version: 6.00 Build 0)  -->
<svg version="1.1" xmlns="http://www.w3.org/2000/svg" xmlns:xlink="http://www.w3.org/1999/xlink" x="0px" y="0px"
	 viewBox="0 0 2000 2000" style="enable-background:new 0 0 2000 2000;" xml:space="preserve">
<style type="text/css">
	.st0{display:none;}
	.st1{fill:#3F51B5;}
	.st2{fill:#03A9F4;}
	.st3{fill:#7C4DFF;}
	.st4{fill:#FF4081;}
</style>
<g id="Guideline" class="st0">
</g>
<g id="레이어_10">
	<path class="st1" d="M1513.49,1088.35c61.32,76.72,82.94,159.52,64.73,248.38c-18.25,88.89-75.29,165.27-171.18,229.2
		c-95.93,63.95-210.51,101.98-343.8,114.12c-133.33,12.17-257.53-2.25-372.57-43.15l-126.59,84.39
		c151.49,62.63,317.86,87.9,499.16,75.76c181.21-12.14,337.06-61.68,467.51-148.64c130.41-86.94,204.72-190.84,222.97-311.67
		c18.16-120.83-19.69-231.78-113.64-332.77L1513.49,1088.35z"/>
	<path class="st2" d="M854.66,1527.57c69.05,15.34,139.49,17.59,211.46,6.71c71.88-10.88,134.73-34.2,188.44-70.01
		c53.67-35.78,88.65-77.68,105.01-125.63c16.28-47.95,12.95-94.94-10.07-140.97L854.66,1527.57z"/>
	<path class="st3" d="M1339.9,1023.79c-5.76,9.02-11.53,17.98-17.31,26.89l147.75-98.5h-88.47
		C1368.61,976.77,1354.62,1000.68,1339.9,1023.79z"/>
	<g>
		<path class="st3" d="M860.64,1358.64c-9.11-10.05-19.23-21.77-30.55-35.37c-18.73-22.46-49.81-63.11-95.02-124.28
			c-45.33-61.33-86.36-121.77-121.96-179.65h0c-32.12-52.15-61.67-110.36-88.11-173.44l-283.13,188.76l244.54,163.03v410.45
			L860.64,1358.64z"/>
	</g>
	<path class="st4" d="M709.6,310.3C783.13,236.77,872.28,200,977.1,200c104.79,0,194.37,36.77,268.77,110.3
		c74.37,73.53,111.56,162.71,111.56,267.5c0,52.41-13.11,112.83-39.3,181.29c-26.22,68.46-57.92,131.85-95.08,190.17
		c-37.2,58.32-74.4,113.27-111.56,164.81c-37.2,51.58-68.46,92.55-93.82,122.97l-40.57,43.1c-10.14-10.14-23.69-25.36-40.57-45.64
		c-16.91-20.28-46.91-59.59-90.01-117.9c-43.1-58.32-81.57-114.93-115.37-169.88c-33.83-54.91-64.26-117.03-91.28-186.36
		c-27.06-69.29-40.57-130.15-40.57-182.56C599.31,473.01,636.07,383.83,709.6,310.3z M882.02,672.88
		c26.19,26.23,57.88,39.3,95.08,39.3c37.17,0,69.29-13.07,96.35-39.3c27.02-26.19,40.57-57.88,40.57-95.08
		c0-37.16-13.54-68.86-40.57-95.08c-27.06-26.19-59.18-39.3-96.35-39.3c-37.2,0-68.89,13.11-95.08,39.3
		c-26.22,26.23-39.3,57.92-39.3,95.08C842.72,615,855.8,646.69,882.02,672.88z"/>
</g>
</svg>
