<?xml version="1.0" encoding="utf-8"?>
<!-- Generator: Adobe Illustrator 24.1.1, SVG Export Plug-In . SVG Version: 6.00 Build 0)  -->
<svg version="1.1" xmlns="http://www.w3.org/2000/svg" xmlns:xlink="http://www.w3.org/1999/xlink" x="0px" y="0px"
	 viewBox="0 0 2000 2000" style="enable-background:new 0 0 2000 2000;" xml:space="preserve">
<style type="text/css">
	.st0{fill:#7C4DFF;}
	.st1{fill:#FF4081;}
	.st2{fill:#3F51B5;}
	.st3{fill:#03A9F4;}
</style>
<g id="레이어_1">
</g>
<g id="레이어_3_1_">
	<path class="st0" d="M800,289.9L710.1,200h-15.7v119.4l-72.2-72.2L600,269.4l88,88l-88,88l22.2,22.2l72.2-72.2v119.4h15.7
		l89.9-89.9l-67.7-67.5L800,289.9z M725.9,260.3l29.6,29.6l-29.6,29.6V260.3z M755.5,424.9l-29.6,29.6v-59.2L755.5,424.9z"/>
	<g>
		<path class="st0" d="M1234,508.3l-86.1-86.1C1003.5,532.4,908.4,702.1,900,894.7h120.4C1029.4,735.2,1111.2,595.6,1234,508.3z"/>
		<path class="st1" d="M1600,1466.4h-220.4c0,66.2,54.2,120.4,120.4,120.4c41.5,0,78.3-21.3,100-53.6V1466.4z"/>
		<path class="st2" d="M1600,1285.9h-340.7V924.8c0-149.2,90.9-270.8,240.7-270.8c37.1,0,70.6,7.5,100,21v-128
			c-3.2-0.9-6.5-1.7-9.7-2.5v-40.9c0-49.9-40.3-90.3-90.3-90.3c-49.9,0-90.3,40.3-90.3,90.3v40.9c-172.1,40.9-270.8,195-270.8,380.3
			v300.9L1018.6,1346v60.2H1600V1285.9z"/>
	</g>
	<g>
		<path class="st3" d="M1500,1686.8C1500,1686.8,1500,1686.8,1500,1686.8l0,13.1c-0.1,0.1-0.1,0.1-0.2,0.2l-999.6,0
			c-0.1-0.1-0.1-0.1-0.2-0.2L500,600l0,0V200c-55,0-100,45-100,100v1400c0,55,45,100,100,100h1000c55,0,100-45,100-100v-37.3
			C1569.5,1678.3,1535.3,1686.8,1500,1686.8z"/>
		<path class="st3" d="M1500,300.2v13.1c0,0,0,0,0,0c25.6,0,50.6,5,74.1,15c9,3.8,17.7,8.3,25.9,13.4V300c0-55-45-100-100-100H900
			v100h599.8C1499.9,300.1,1499.9,300.1,1500,300.2z"/>
	</g>
</g>
</svg>
