<?xml version="1.0" encoding="utf-8"?>
<!-- Generator: Adobe Illustrator 24.3.0, SVG Export Plug-In . SVG Version: 6.00 Build 0)  -->
<svg version="1.1" xmlns="http://www.w3.org/2000/svg" xmlns:xlink="http://www.w3.org/1999/xlink" x="0px" y="0px"
	 viewBox="0 0 2000 2000" style="enable-background:new 0 0 2000 2000;" xml:space="preserve">
<style type="text/css">
	.st0{fill:#FFFFFF;}
	.st1{fill:#7C4DFF;}
	.st2{fill:#FF4081;}
	.st3{fill:#3F51B5;}
	.st4{fill:#03A9F4;}
</style>
<g id="레이어_2">
	<circle class="st0" cx="1000" cy="1000" r="1000"/>
</g>
<g id="레이어_1">
	<g id="레이어_1_1_">
	</g>
	<g id="레이어_3_1_">
		<path class="st1" d="M833.3,408.2l-74.9-74.9h-13.1v99.5l-60.2-60.2l-18.5,18.5l73.3,73.3l-73.3,73.3l18.5,18.5l60.2-60.2v99.5
			h13.1l74.9-74.9l-56.4-56.2L833.3,408.2z M771.6,383.6l24.7,24.7l-24.7,24.7V383.6z M796.2,520.8l-24.7,24.7v-49.3L796.2,520.8z"
			/>
		<g>
			<path class="st1" d="M1195,590.2l-71.8-71.8c-120.3,91.8-199.6,233.2-206.6,393.8H1017C1024.5,779.3,1092.7,663,1195,590.2z"/>
			<path class="st2" d="M1500,1388.7h-183.7c0,55.2,45.2,100.3,100.3,100.3c34.6,0,65.3-17.8,83.3-44.7V1388.7z"/>
			<path class="st3" d="M1500,1238.2h-283.9V937.3c0-124.3,75.8-225.7,200.6-225.7c30.9,0,58.8,6.2,83.3,17.5V622.5
				c-2.7-0.8-5.4-1.4-8.1-2.1v-34.1c0-41.6-33.6-75.2-75.3-75.2c-41.6,0-75.2,33.6-75.2,75.2v34.1
				c-143.4,34.1-225.7,162.5-225.7,316.9v250.7l-100.2,100.3v50.2H1500V1238.2z"/>
		</g>
		<g>
			<path class="st4" d="M1416.7,1572.3L1416.7,1572.3v10.9c-0.1,0.1-0.1,0.1-0.2,0.2h-833c-0.1-0.1-0.1-0.1-0.2-0.2l0-916.6l0,0
				V333.3c-45.8,0-83.3,37.5-83.3,83.3v1166.7c0,45.8,37.5,83.3,83.3,83.3h833.3c45.8,0,83.3-37.5,83.3-83.3v-31.1
				C1474.6,1565.2,1446.1,1572.3,1416.7,1572.3z"/>
			<path class="st4" d="M1416.7,416.8v10.9l0,0c21.3,0,42.2,4.2,61.8,12.5c7.5,3.2,14.8,6.9,21.6,11.2v-34.8
				c0-45.8-37.5-83.3-83.3-83.3h-500v83.3h499.8C1416.6,416.8,1416.6,416.8,1416.7,416.8z"/>
		</g>
	</g>
</g>
</svg>
